<svg width="93" height="150" viewBox="0 0 93 150" fill="none" xmlns="http://www.w3.org/2000/svg">
<rect x="11.7352" y="26.9255" width="61" height="12" transform="rotate(1.88126 11.7352 26.9255)" fill="black"/>
<rect x="2" y="36" width="80" height="12" fill="black"/>
<path d="M65.0142 55.3636H75.142V110.74C75.142 116.457 73.7944 121.562 71.0991 126.054C68.431 130.519 64.6603 134.045 59.7869 136.631C54.9136 139.191 49.1963 140.47 42.6349 140.47C36.0736 140.47 30.3563 139.191 25.483 136.631C20.6096 134.045 16.8253 130.519 14.13 126.054C11.4619 121.562 10.1278 116.457 10.1278 110.74V55.3636H20.2557V109.923C20.2557 114.007 21.1541 117.642 22.951 120.827C24.7479 123.985 27.3071 126.476 30.6286 128.3C33.9773 130.097 37.9794 130.996 42.6349 130.996C47.2905 130.996 51.2926 130.097 54.6413 128.3C57.9901 126.476 60.5492 123.985 62.3189 120.827C64.1158 117.642 65.0142 114.007 65.0142 109.923V55.3636Z" fill="black"/>
<rect x="64.5896" width="6" height="44" transform="rotate(19.3648 64.5896 0)" fill="black"/>
</svg>
