<?xml version="1.0" encoding="iso-8859-1"?>
<!-- Uploaded to: SVG Repo, www.svgrepo.com, Generator: SVG Repo Mixer Tools -->
<!DOCTYPE svg PUBLIC "-//W3C//DTD SVG 1.1//EN" "http://www.w3.org/Graphics/SVG/1.1/DTD/svg11.dtd">
<svg fill="#000000" height="800px" width="800px" version="1.1" id="Capa_1" xmlns="http://www.w3.org/2000/svg" xmlns:xlink="http://www.w3.org/1999/xlink" 
	 viewBox="0 0 303.154 303.154" xml:space="preserve">
<path d="M295.154,286.883h-31.08V74.609c0-23.913-19.455-43.367-43.369-43.367H139.24V8.271c0-4.418-3.582-8-8-8H56.968
	c-4.418,0-8,3.582-8,8v22.971H38.765c-4.418,0-8,3.582-8,8s3.582,8,8,8h10.204v19.404C19.061,83.045,0,114.919,0,149.233
	c0,24.696,9.767,48.41,26.983,65.948c-5.383,11.953-7.777,18.645-7.777,22.301c0,19.398,15.782,35.18,35.18,35.18
	c17.451,0,31.974-12.771,34.715-29.458c1.667,0.088,3.335,0.132,5.002,0.132c51.89,0,94.105-42.214,94.105-94.103
	c0-34.313-19.062-66.188-48.969-82.587V47.242h81.465c15.092,0,27.369,12.277,27.369,27.367v212.273h-31.078c-4.418,0-8,3.582-8,8
	s3.582,8,8,8h78.158c4.418,0,8-3.582,8-8S299.572,286.883,295.154,286.883z M64.968,16.271h58.271v14.971H64.968V16.271z
	 M54.386,256.662c-10.484,0-19.03-8.455-19.178-18.905c0.947-5.303,12.894-30.135,18.665-42.13c0.173-0.359,0.344-0.716,0.514-1.068
	c0.163,0.339,0.328,0.681,0.494,1.025c5.283,10.98,15.735,32.704,18.209,40.401c0.084,0.397,0.198,0.787,0.34,1.163
	c0.057,0.225,0.102,0.428,0.134,0.608C73.417,248.207,64.87,256.662,54.386,256.662z M172.208,149.233
	c0,43.065-35.038,78.103-78.105,78.103c-2.438,0-4.881-0.113-7.306-0.338c-3.038-7.938-8.688-20.036-17.499-38.351
	c-3.368-7-6.276-13.045-7.554-16.039c-1.258-2.947-4.154-4.859-7.359-4.859c-3.205,0-6.1,1.913-7.357,4.861
	c-1.28,2.999-4.196,9.062-7.573,16.08c-1.856,3.858-3.573,7.441-5.153,10.767C22.568,185.47,16,167.681,16,149.233
	c0-2.084,0.085-4.16,0.251-6.218c12.313-7.751,36.868-6.992,52.277,1.977c19.046,11.084,53.033,13.501,71.352-0.758
	c3.487-2.714,4.113-7.74,1.399-11.228c-2.713-3.486-7.74-4.111-11.227-1.399c-11.382,8.858-37.87,8.64-53.476-0.443
	c-14.989-8.726-38.005-12.298-56.349-7.137c6.719-19.535,21.056-36.119,40.195-45.281c2.778-1.33,4.545-4.136,4.545-7.216V47.242
	h58.271V71.53c0,3.08,1.768,5.886,4.545,7.216C154.771,91.666,172.208,119.334,172.208,149.233z"/>
</svg>